<?xml version="1.0" encoding="utf-8"?>
<!-- Generator: Adobe Illustrator 16.0.4, SVG Export Plug-In . SVG Version: 6.00 Build 0)  -->
<!DOCTYPE svg PUBLIC "-//W3C//DTD SVG 1.1//EN" "http://www.w3.org/Graphics/SVG/1.1/DTD/svg11.dtd">
<svg version="1.1" id="Layer_1" xmlns="http://www.w3.org/2000/svg" xmlns:xlink="http://www.w3.org/1999/xlink" x="0px" y="0px"
	 width="457px" height="381px" viewBox="0 0 457 381" enable-background="new 0 0 457 381" xml:space="preserve">
<path fill="#FFFFFF" d="M5.557,363.97c0-2.472,0-4.427,0-6.899c0-1.157,0.437-2.472,3.054-2.437
	c11.487,0.066,24.486,0.007,35.972,0.088c2.033,0.014,2.772-0.505,2.771-2.669c-0.059-56.415-0.055-112.831-0.059-169.246
	c-0.001-12.506-0.056-25.01,0.044-37.513c0.042-5.13,2.229-9.259,6.704-11.981c2.971-1.808,6.28-2.024,9.664-2.022
	c62.522,0.025,125.044,0.03,187.566,0.031c47.837,0,95.675-0.029,143.511,0.03c2.197,0.002,4.561,0.369,6.556,1.236
	c6.133,2.665,8.35,7.781,8.347,14.231c-0.029,68.409-0.012,136.821-0.064,205.231c-0.002,2.154,0.698,2.683,2.756,2.667
	c11.413-0.088,22.827-0.012,34.241-0.073c1.93-0.011,4.35,0.171,4.495,2.207c0,2.473,0.018,7.301-0.006,7.417
	c-1.36,6.493-7.254,10.866-14.888,10.791c-15.629-0.151-31.26-0.042-46.891-0.042c-79.896-0.004-159.792-0.01-239.689-0.012
	c-43.184-0.002-86.367,0.004-129.55,0.01c-3.125,0.002-6-0.75-8.652-2.47C8.264,370.489,5.63,367.466,5.557,363.97z
	 M228.478,144.683c0-0.002,0-0.006,0-0.008c-54.893,0-109.787-0.002-164.681,0.002c-3.116,0-3.132,0.015-3.132,3.087
	c0,63.4,0.017,126.8-0.04,190.202c-0.002,2.257,0.681,2.788,2.85,2.78c23.484-0.071,46.968-0.04,70.453-0.04
	c86.376,0.002,172.752,0.004,259.127,0.002c3.228,0,3.243-0.014,3.243-3.195c-0.001-63.329-0.005-126.655-0.011-189.983
	c0-2.83-0.013-2.845-2.909-2.845C338.411,144.683,283.444,144.683,228.478,144.683z M228.48,354.073c-5.74,0-11.481,0-17.221,0
	c-6.394,0-12.788-0.008-19.183,0.006c-2.206,0.006-2.981,0.945-1.845,2.767c0.937,1.504,2.398,3.071,3.984,3.686
	c2.157,0.833,4.653,1.06,7.006,1.074c15.549,0.089,31.099,0.065,46.649,0.047c3.995-0.004,8.001,0.044,11.98-0.246
	c2.822-0.205,5.348-1.353,6.726-4.133c1.156-2.333,0.651-3.194-1.91-3.194C252.604,354.071,240.542,354.075,228.48,354.073z"/>
<path fill="none" stroke="#FFFFFF" stroke-width="5" stroke-linecap="round" stroke-miterlimit="10" d="M34.997,8.5
	c0,0-1.5,21.75,21.75,21.75s82.583,0,101.25,0c20.667,0,68.667,3.084,69,76.25"/>
<path fill="none" stroke="#FFFFFF" stroke-width="5" stroke-linecap="round" stroke-miterlimit="10" d="M420.947,8.5
	c0,0,1.5,21.75-21.75,21.75s-82.584,0-101.25,0c-20.666,0-68.667,3.084-69,76.25"/>
<g>
	<path fill="#FFFFFF" d="M239.357,98.834c0.792,0,1.033,0.505,0.537,1.121l-10.994,13.646c-0.497,0.616-1.31,0.616-1.807,0
		L216.1,99.955c-0.497-0.616-0.255-1.121,0.537-1.121H239.357z"/>
</g>
</svg>
