<?xml version="1.0" encoding="utf-8"?>
<!-- Generator: Adobe Illustrator 16.0.4, SVG Export Plug-In . SVG Version: 6.00 Build 0)  -->
<!DOCTYPE svg PUBLIC "-//W3C//DTD SVG 1.1//EN" "http://www.w3.org/Graphics/SVG/1.1/DTD/svg11.dtd">
<svg version="1.1" id="Layer_1" xmlns="http://www.w3.org/2000/svg" xmlns:xlink="http://www.w3.org/1999/xlink" x="0px" y="0px"
	 width="666px" height="744.5px" viewBox="0 0 666 744.5" enable-background="new 0 0 666 744.5" xml:space="preserve">
<path fill-rule="evenodd" clip-rule="evenodd" fill="#FFFFFF" d="M663.902,422.161c-0.443-5.097-2.435-9.75-5.399-13.947
	c-6.687-9.468-13.455-18.88-20.053-28.409c-11.741-16.957-23.185-34.123-35.126-50.935c-9.38-13.207-10.959-26.579-3.516-41.213
	c2.641-5.193,4.438-10.989,5.613-16.717c2.365-11.529,0.681-22.979-2.629-34.119c-4.713-15.861-9.596-31.678-14.722-47.411
	c-6.04-18.54-11.645-37.239-19.508-55.146c-9.881-22.498-23.742-42.128-41.732-58.87c-13.95-12.983-29.492-23.76-45.878-33.38
	c-23.787-13.965-48.872-24.811-75.705-31.461c-23.743-5.884-47.946-7.928-72.293-8.238c-15.822-0.202-31.665,0.157-47.479,0.767
	c-30.776,1.186-61.142,5.361-90.916,13.473c-27.762,7.564-53.375,19.551-76.558,36.676c-19.088,14.1-35.838,30.617-50.958,48.841
	c-21.745,26.209-37.852,55.546-48.601,87.84c-7.202,21.637-11.79,43.856-14.19,66.501c-1.531,14.445-3.294,28.888-2.445,43.5
	c0.958,16.486,2.888,32.793,7.086,48.805c4.474,17.062,9.723,33.847,18.382,49.31c10.196,18.205,20.45,36.386,31.081,54.339
	c16.751,28.288,30.18,57.929,38.953,89.699c8.366,30.297,11.423,61.076,9.809,92.377c-0.896,17.357-3.499,34.519-6.524,51.611
	c-2.429,13.718-5.419,27.324-10.72,40.259c-1.976,4.821-4.167,9.555-6.381,14.279c-0.376,0.804-1.056,2.16,1.194,2.16
	c2.223,0,0.797,0,3.062,0c1.594,0,2.181-1.356,2.578-2.163c9.805-19.906,14.107-41.377,17.69-63.113
	c4.022-24.398,5.637-48.902,4.842-73.604c-0.858-26.663-6.037-52.516-14.026-77.892c-8.258-26.228-20.108-50.782-33.9-74.502
	c-11.814-20.318-23.473-40.734-34.784-61.336c-6.371-11.604-10.218-24.289-13.849-36.997c-5.455-19.093-8.597-38.535-8.881-58.404
	c-0.194-13.545,1.217-26.989,2.885-40.404c2.662-21.404,7.138-42.409,14.028-62.875c12.083-35.891,30.913-67.814,56.175-96.01
	c19.218-21.45,41.095-39.55,66.394-53.415c20.289-11.119,41.985-18.396,64.463-23.522c27.777-6.335,55.952-9.407,84.394-10.301
	c24.64-0.774,49.252-0.715,73.799,2.024c24.488,2.732,48.107,8.811,70.826,18.316c24.087,10.078,46.56,22.992,67.489,38.624
	c25.416,18.984,44.336,43.089,56.19,72.444c6.278,15.548,11.586,31.509,16.834,47.448c5.95,18.07,11.478,36.284,16.933,54.512
	c3.938,13.155,4.249,26.323-1.406,39.195c-1.125,2.56-2.558,4.993-3.563,7.595c-5.71,14.776-4.922,28.872,4.303,42.201
	c13.832,19.985,27.485,40.093,41.297,60.092c4.452,6.446,9.206,12.682,13.733,19.076c1.38,1.948,2.551,4.061,3.669,6.176
	c4.175,7.896,2.138,14.348-4.473,20.412c-7.957,7.301-17.667,11.68-28.213,14.177c-2.217,0.525-4.524,1.301-6.386,2.559
	c-3.811,2.575-6.117,5.969-5.68,11.067c0.615,7.179,0.848,14.313,4.19,20.987c2.548,5.086,0.565,9.999-1.647,14.708
	c-1.138,2.423-2.83,4.311-5.1,5.885c-2.675,1.856-5.203,4.03-7.414,6.419c-1.992,2.152-1.366,4.977-0.388,7.419
	c1.126,2.81,2.607,5.482,4.007,8.178c1.971,3.795,1.153,7.233-1.133,10.571c-3.115,4.549-6.193,9.124-9.261,13.706
	c-1.975,2.948-2.531,6.247-2.816,9.762c-0.727,8.944,2.648,17.167,4.148,25.711c2.406,13.704,0.032,26.411-7.47,38.113
	c-5.61,8.751-14.146,13.713-23.465,17.48c-8.246,3.333-16.973,4.506-25.787,5.065c-18.27,1.16-36.544,2.253-54.812,3.44
	c-12.443,0.809-24.219,3.771-34.109,11.828c-3.514,2.863-6.772,6.118-9.75,9.54c-4.229,4.861-6.366,10.677-6.313,17.19
	c0.048,6.068,0.808,12.217,0.083,18.188c-1.309,10.794-3.335,21.502-5.097,32.243c-0.133,0.811-0.29,2.184,1.397,2.184
	c1.888,0,0.308,0,2.312,0c1.812,0,2.139-1.367,2.297-2.176c0.709-3.614,1.407-7.231,2.066-10.856
	c2.092-11.507,3.672-23.029,2.473-34.809c-0.709-6.959,1.461-13.302,5.852-18.775c7.587-9.458,17.564-15.389,29.354-17.196
	c12.133-1.86,24.468-2.446,36.728-3.43c13.543-1.087,27.146-1.587,40.64-3.086c14.608-1.621,27.406-7.689,37.37-18.714
	c11.162-12.351,14.153-27.314,12.354-43.369c-0.726-6.484-2.333-12.889-3.824-19.263c-1.493-6.386-1.224-12.336,2.747-17.851
	c2.241-3.112,4.004-6.601,6.46-9.518c5.884-6.983,5.647-14.195,1.63-21.84c-3.561-6.773-3.517-6.797,2.912-11.106
	c8.852-5.935,13.155-18.701,8.931-28.436c-2.488-5.735-3.324-11.632-3.944-17.672c-0.3-2.911,0.823-5.283,3.419-6.585
	c2.049-1.027,4.341-1.564,6.514-2.348c4.799-1.731,9.757-3.13,14.346-5.305c6.669-3.161,12.882-7.16,17.617-13.008
	C662.213,432.982,664.403,427.925,663.902,422.161z"/>
</svg>
