<?xml version="1.0" encoding="utf-8"?>
<!-- Generator: Adobe Illustrator 16.0.4, SVG Export Plug-In . SVG Version: 6.00 Build 0)  -->
<!DOCTYPE svg PUBLIC "-//W3C//DTD SVG 1.1//EN" "http://www.w3.org/Graphics/SVG/1.1/DTD/svg11.dtd">
<svg version="1.1" id="Layer_1" xmlns="http://www.w3.org/2000/svg" xmlns:xlink="http://www.w3.org/1999/xlink" x="0px" y="0px"
	 width="216px" height="216px" viewBox="0 0 216 216" enable-background="new 0 0 216 216" xml:space="preserve">
<path fill="#FFFFFF" d="M107.174,0.867C47.984,0.867,0,48.852,0,108.041s47.984,107.174,107.174,107.174
	s107.174-47.985,107.174-107.174S166.363,0.867,107.174,0.867z M83.723,161.12h-21.31V87.476h21.31V161.12z M82.392,75.867
	c-2.539,2.539-5.647,3.803-9.324,3.803c-3.683,0-6.759-1.265-9.228-3.803c-2.481-2.539-3.716-5.647-3.716-9.327
	s1.234-6.819,3.716-9.42c2.469-2.596,5.545-3.9,9.228-3.9c3.676,0,6.785,1.304,9.324,3.9c2.536,2.602,3.806,5.741,3.806,9.42
	S84.928,73.328,82.392,75.867z M156.994,161.12h-20.939v-44.911c0-1.018-0.378-2.219-1.135-3.619
	c-0.767-1.392-1.588-2.216-2.479-2.47c-2.158-1.144-4.25-1.584-6.281-1.334c-2.031,0.257-3.87,0.761-5.515,1.524
	c-1.905,0.888-3.683,2.092-5.328,3.613v47.196H94.004V87.476h21.313v3.423c4.054-2.028,8.624-2.916,13.701-2.665
	c5.071,0.256,9.638,1.397,13.701,3.426c4.312,2.415,7.77,5.898,10.371,10.468c2.602,4.567,3.903,9.26,3.903,14.082V161.12z"/>
</svg>
