<?xml version="1.0" encoding="utf-8"?>
<!-- Generator: Adobe Illustrator 16.0.4, SVG Export Plug-In . SVG Version: 6.00 Build 0)  -->
<!DOCTYPE svg PUBLIC "-//W3C//DTD SVG 1.1//EN" "http://www.w3.org/Graphics/SVG/1.1/DTD/svg11.dtd">
<svg version="1.1" id="Layer_1" xmlns="http://www.w3.org/2000/svg" xmlns:xlink="http://www.w3.org/1999/xlink" x="0px" y="0px"
	 width="216px" height="216px" viewBox="0 0 216 216" enable-background="new 0 0 216 216" xml:space="preserve">
<path fill="#FFFFFF" d="M107.9,0C48.31,0,0,48.308,0,107.898c0,59.59,48.31,107.9,107.9,107.9s107.901-48.311,107.901-107.9
	C215.801,48.308,167.49,0,107.9,0z M164.697,152.816c-1.057,2.416-2.898,4.207-4.979,5.744c-2.91,2.158-6.186,3.646-9.557,4.932
	c-2.994,1.141-6.068,1.961-9.266,2.229c-0.645,0.055-1.297,0.006-1.945,0.006c-3.998-0.031-7.912-0.672-11.688-2.01
	c-5.75-2.041-11.541-3.977-17.049-6.621c-7.533-3.617-14.392-8.285-20.764-13.67c-8.181-6.916-15.556-14.592-21.877-23.256
	c-4.838-6.635-8.855-13.718-11.669-21.452c-1.386-3.811-2.796-7.616-4.093-11.457c-0.981-2.902-1.413-5.935-1.595-8.992
	c-0.204-3.519,0.422-6.932,1.516-10.267c1.325-4.049,3.009-7.933,5.467-11.445c2.106-3.002,4.826-5.129,8.375-6.219
	c3.209-0.982,6.431-1.675,9.801-1.579c0.875,0.024,1.568,0.315,2.127,1.011c1.447,1.785,2.641,3.732,3.744,5.734
	c2.553,4.648,5.084,9.308,7.652,13.949c0.435,0.784,1.021,1.489,1.504,2.255c0.608,0.966,1.237,1.92,1.744,2.941
	c0.83,1.66,0.735,3.276-0.392,4.814c-1.453,1.975-3.242,3.604-5.145,5.111c-2.276,1.799-4.638,3.495-6.649,5.607
	c-0.547,0.58-1.048,1.207-1.532,1.844c-0.723,0.955-0.884,2.03-0.492,3.151c0.304,0.866,0.599,1.754,1.045,2.55
	c2.893,5.203,5.932,10.32,9.566,15.058c6.583,8.584,14.66,15.447,23.966,20.898c1.719,1.016,3.422,2.055,5.172,3.008
	c0.951,0.52,1.975,0.912,2.99,1.307c1.301,0.512,2.508,0.227,3.531-0.668c0.934-0.82,1.854-1.668,2.678-2.596
	c2.381-2.68,4.688-5.424,7.076-8.102c0.73-0.82,1.6-1.531,2.443-2.248c1.52-1.295,3.201-1.4,4.957-0.545
	c0.75,0.365,1.516,0.736,2.18,1.232c2.875,2.168,6.125,3.695,9.246,5.445c3.289,1.844,6.586,3.664,9.855,5.537
	c1.092,0.631,2.098,1.402,3.16,2.08c1.076,0.686,1.465,1.678,1.451,2.912C167.205,145.146,166.336,149.072,164.697,152.816z"/>
</svg>
