<?xml version="1.0" encoding="utf-8"?>
<!-- Generator: Adobe Illustrator 16.0.4, SVG Export Plug-In . SVG Version: 6.00 Build 0)  -->
<!DOCTYPE svg PUBLIC "-//W3C//DTD SVG 1.1//EN" "http://www.w3.org/Graphics/SVG/1.1/DTD/svg11.dtd">
<svg version="1.1" id="Layer_1" xmlns="http://www.w3.org/2000/svg" xmlns:xlink="http://www.w3.org/1999/xlink" x="0px" y="0px"
	 width="216px" height="216px" viewBox="0 0 216 216" enable-background="new 0 0 216 216" xml:space="preserve">
<path fill="#FFFFFF" d="M108.188,0.993C48.998,0.993,1.016,48.976,1.016,108.166c0,59.19,47.982,107.174,107.171,107.174
	s107.174-47.984,107.174-107.174C215.361,48.976,167.377,0.993,108.188,0.993z M59.998,66.8c0.619-0.012,1.234-0.015,1.859-0.024
	c5.925-0.103,11.856-0.194,17.782-0.303c5.956-0.11,11.905-0.213,17.857-0.208c20.329,0.015,40.665,0.006,60.997,0.001
	c0.794,0,1.573,0.071,2.343,0.262c0.084,0.02,0.157,0.058,0.235,0.094c0.015,0.008,0.024,0.035,0.045,0.061
	c-0.036,0.045-0.06,0.105-0.111,0.14c-17.477,12.299-34.957,24.596-52.477,36.917C92.184,91.452,75.89,79.206,59.602,66.954
	C59.741,66.753,59.879,66.806,59.998,66.8z M167.081,144.007c-0.896,3.013-3.556,5.747-7.419,6.188
	c-0.173,0.021-0.342,0.023-0.514,0.029c-0.25,0.004-0.51,0.004-0.77,0.004c-33.279,0.003-66.558,0-99.836,0.003
	c-0.836,0-1.66-0.049-2.472-0.251c-3.384-0.836-5.989-3.703-6.508-7.145c-0.091-0.595-0.105-1.189-0.105-1.787
	c0-17.302,0-34.604,0-51.903c0-4.694,0.003-9.391,0-14.081c0-1.733,0.474-3.324,1.403-4.78c0.1-0.156,0.224-0.299,0.32-0.421
	c0.076,0,0.094-0.003,0.112,0.001c0.027,0.003,0.045,0.019,0.061,0.027c0.021,0.008,0.036,0.022,0.057,0.035
	c0.015,0.011,0.03,0.023,0.045,0.035c0.021,0.014,0.042,0.026,0.057,0.04c0.03,0.024,0.07,0.051,0.1,0.075
	c0.018,0.015,0.037,0.026,0.055,0.04c0.018,0.013,0.033,0.024,0.051,0.038c0.184,0.14,0.371,0.284,0.562,0.422
	c18.53,13.937,37.064,27.87,55.594,41.803c0.036,0.027,0.069,0.055,0.103,0.079c0.036,0.024,0.069,0.054,0.103,0.075
	c0.021,0.016,0.033,0.027,0.051,0.039c0.015,0.013,0.037,0.027,0.052,0.036c0.018,0.013,0.039,0.03,0.054,0.036
	c0.021,0.013,0.036,0.024,0.054,0.033c0.018,0.01,0.036,0.016,0.103,0.033c0.202-0.051,0.375-0.217,0.559-0.35
	c4.938-3.471,9.873-6.939,14.812-10.414c14.097-9.916,28.196-19.831,42.292-29.744c0.224-0.158,0.435-0.346,0.688-0.439
	c0.196,0.163,0.221,0.385,0.283,0.584c0.27,0.833,0.42,1.696,0.429,2.578c0.003,0.19,0.003,0.38,0.003,0.574
	c0,21.845,0,43.69,0.004,65.538C167.462,142.045,167.371,143.035,167.081,144.007z"/>
</svg>
